<?xml version="1.0" encoding="UTF-8"?>
<svg xmlns="http://www.w3.org/2000/svg" xmlns:xlink="http://www.w3.org/1999/xlink" width="12pt" height="11pt" viewBox="0 0 12 11" version="1.1">
<defs>
<clipPath id="clip1">
  <path d="M 0 0 L 11.949219 0 L 11.949219 10.953125 L 0 10.953125 Z M 0 0 "/>
</clipPath>
</defs>
<g id="surface1">
<g clip-path="url(#clip1)" clip-rule="nonzero">
<path style=" stroke:none;fill-rule:evenodd;fill:rgb(100%,100%,100%);fill-opacity:1;" d="M 11.671875 4.984375 C 11.832031 4.835938 11.921875 4.636719 11.933594 4.4375 L 11.933594 4.402344 C 11.933594 4.328125 11.914062 4.246094 11.886719 4.179688 C 11.789062 3.890625 11.527344 3.691406 11.199219 3.640625 L 8.304688 3.257812 C 8.1875 3.242188 8.078125 3.167969 8.023438 3.066406 L 6.730469 0.664062 C 6.585938 0.398438 6.289062 0.230469 5.972656 0.230469 C 5.644531 0.230469 5.347656 0.398438 5.203125 0.664062 L 3.90625 3.066406 C 3.855469 3.167969 3.746094 3.242188 3.628906 3.257812 L 0.734375 3.640625 C 0.40625 3.691406 0.144531 3.890625 0.046875 4.179688 C 0.0195312 4.246094 0 4.328125 0 4.402344 L 0 4.4375 C 0.0078125 4.636719 0.0976562 4.835938 0.261719 4.984375 L 2.351562 6.839844 C 2.441406 6.925781 2.480469 7.039062 2.460938 7.148438 L 1.964844 9.792969 C 1.925781 10.027344 1.992188 10.25 2.152344 10.425781 C 2.40625 10.707031 2.851562 10.789062 3.210938 10.613281 L 5.800781 9.371094 C 5.898438 9.320312 6.035156 9.320312 6.132812 9.371094 L 8.722656 10.613281 C 8.847656 10.679688 8.984375 10.707031 9.117188 10.707031 C 9.371094 10.707031 9.617188 10.605469 9.78125 10.425781 C 9.941406 10.25 10.003906 10.019531 9.96875 9.792969 L 9.472656 7.148438 C 9.453125 7.039062 9.488281 6.925781 9.582031 6.839844 Z M 11.671875 4.984375 "/>
</g>
</g>
</svg>
