<?xml version="1.0" encoding="UTF-8"?>
<svg xmlns="http://www.w3.org/2000/svg" xmlns:xlink="http://www.w3.org/1999/xlink" width="12pt" height="12pt" viewBox="0 0 12 12" version="1.1">
<g id="surface1">
<path style=" stroke:none;fill-rule:evenodd;fill:rgb(100%,100%,100%);fill-opacity:1;" d="M 11.582031 10.898438 L 8.757812 7.96875 C 9.480469 7.101562 9.882812 6.023438 9.882812 4.890625 C 9.882812 2.253906 7.738281 0.101562 5.101562 0.101562 C 2.457031 0.101562 0.308594 2.242188 0.308594 4.890625 C 0.308594 7.527344 2.457031 9.675781 5.101562 9.675781 C 6.078125 9.675781 7.023438 9.378906 7.835938 8.8125 L 10.675781 11.765625 C 10.796875 11.890625 10.960938 11.960938 11.125 11.960938 C 11.292969 11.960938 11.449219 11.898438 11.558594 11.789062 C 11.8125 11.542969 11.820312 11.148438 11.582031 10.898438 Z M 5.101562 1.355469 C 7.039062 1.355469 8.628906 2.9375 8.628906 4.890625 C 8.628906 6.835938 7.046875 8.425781 5.101562 8.425781 C 3.148438 8.425781 1.558594 6.835938 1.558594 4.890625 C 1.558594 2.9375 3.148438 1.355469 5.101562 1.355469 Z M 5.101562 1.355469 "/>
</g>
</svg>
