<svg xmlns="http://www.w3.org/2000/svg" xmlns:xlink="http://www.w3.org/1999/xlink" viewBox="0 0 1500 700.5">
  <defs>
    <style>
      .cls-1, .cls-42, .cls-53 {
        fill: #171721;
      }

      .cls-2, .cls-3, .cls-4, .cls-45, .cls-5 {
        fill: none;
      }

      .cls-2, .cls-3, .cls-4, .cls-5 {
        stroke: #20202c;
        stroke-linecap: round;
        stroke-linejoin: round;
      }

      .cls-2 {
        stroke-dasharray: 0 5.67;
      }

      .cls-3 {
        stroke-width: 1.13px;
      }

      .cls-3, .cls-4 {
        stroke-dasharray: 0 2.83;
      }

      .cls-5 {
        stroke-width: 0.57px;
        stroke-dasharray: 0 1.42;
      }

      .cls-40, .cls-41, .cls-52, .cls-6 {
        fill: #31313f;
      }

      .cls-33, .cls-39, .cls-7 {
        fill: #20202c;
      }

      .cls-8 {
        fill: #2fb196;
      }

      .cls-9 {
        fill: #fff;
      }

      .cls-10 {
        fill: #f7f7f7;
      }

      .cls-11, .cls-35 {
        fill: #3b3b4c;
      }

      .cls-12, .cls-25, .cls-29, .cls-43 {
        fill: #9da095;
      }

      .cls-13 {
        fill: #dbdbdb;
      }

      .cls-14, .cls-19 {
        fill: #cfd4c5;
      }

      .cls-14, .cls-22, .cls-24, .cls-28, .cls-29, .cls-34, .cls-35, .cls-53 {
        opacity: 0.5;
      }

      .cls-14, .cls-22, .cls-24, .cls-25, .cls-29, .cls-30, .cls-31, .cls-33, .cls-34, .cls-35, .cls-39, .cls-40, .cls-41, .cls-42, .cls-43, .cls-48, .cls-49, .cls-50, .cls-51, .cls-52, .cls-53, .cls-54, .cls-56 {
        isolation: isolate;
      }

      .cls-15 {
        fill: #45f4ca;
      }

      .cls-16, .cls-24, .cls-30, .cls-31 {
        fill: #aeb2a4;
      }

      .cls-17 {
        fill: #ffd9ca;
      }

      .cls-18 {
        fill: #f2beb1;
      }

      .cls-20 {
        fill: #e0b3aa;
      }

      .cls-21 {
        fill: url(#Dégradé_sans_nom_23);
      }

      .cls-22, .cls-23, .cls-51 {
        fill: #2b2b3a;
      }

      .cls-25 {
        opacity: 0.7;
      }

      .cls-26 {
        fill: #e7f1fd;
      }

      .cls-27, .cls-34, .cls-48, .cls-56 {
        fill: #45455b;
      }

      .cls-30, .cls-41, .cls-48 {
        opacity: 0.3;
      }

      .cls-31, .cls-39 {
        opacity: 0.4;
      }

      .cls-32 {
        fill: #f7f8fb;
      }

      .cls-33 {
        opacity: 0.6;
      }

      .cls-36 {
        fill: #99735e;
      }

      .cls-37 {
        fill: #e59470;
      }

      .cls-38 {
        fill: #38ceaa;
      }

      .cls-40 {
        opacity: 0.1;
      }

      .cls-42, .cls-50, .cls-51, .cls-52, .cls-54 {
        opacity: 0.9;
      }

      .cls-43, .cls-49, .cls-56 {
        opacity: 0.2;
      }

      .cls-44 {
        fill: #09aeef;
      }

      .cls-46 {
        fill: #febda9;
      }

      .cls-47 {
        fill: #f5a397;
      }

      .cls-49 {
        fill: #2b0950;
      }

      .cls-50 {
        fill: url(#Dégradé_sans_nom_20);
      }

      .cls-54 {
        fill: #8b92ab;
      }

      .cls-55 {
        fill: #e8e8e8;
      }

      .cls-57 {
        fill: #aeaeaf;
      }

      .cls-58 {
        fill: #d6d6d6;
      }
    </style>
    <linearGradient id="Dégradé_sans_nom_23" data-name="Dégradé sans nom 23" x1="1034.29" y1="795.53" x2="1034.29" y2="795.65" gradientTransform="matrix(1, 0, 0, -1, 0, 1037.28)" gradientUnits="userSpaceOnUse">
      <stop offset="0" stop-color="#ff817f"/>
      <stop offset="1" stop-color="#cf6074"/>
    </linearGradient>
    <linearGradient id="Dégradé_sans_nom_20" data-name="Dégradé sans nom 20" x1="1361.77" y1="761.63" x2="1361.77" y2="760.36" gradientTransform="translate(0 -301)" gradientUnits="userSpaceOnUse">
      <stop offset="0" stop-color="#ccb8ff"/>
      <stop offset="1" stop-color="#af8bc2"/>
    </linearGradient>
  </defs>
  <g id="Calque_2" data-name="Calque 2">
    <g id="Calque_1-2" data-name="Calque 1">
      <rect class="cls-1" y="0.5" width="1500" height="700"/>
      <g id="Calque_2-2" data-name="Calque 2">
        <g id="Calque_1-2-2" data-name="Calque 1-2">
          <g>
            <g>
              <g>
                <path class="cls-2" d="M1423.1,352s-60.3,63.6-237,112S987.9,280.6,871.2,240.6,669,384.3,630.8,361.4s-84.6-55.1-147.4-2.2c-14.2,11.9-38.6,71.2-53.5,98-41.8,74.7-131.3,40.2-195.9-38.6-66.7-81.3-231,5-231,5"/>
                <path class="cls-2" d="M1426.6,357.4s-59.5,61.2-237.8,108.6S990.4,281.6,875.4,239.2,673.8,377.7,633.9,359.5s-84.6-55.1-149.2-3.5c-15.9,12.7-45.8,72.7-62.2,98.4-44,69.6-124.6,33-190-41.6-69-78.6-229.4,7.7-229.4,7.7"/>
                <path class="cls-2" d="M1430.2,362.7s-58.6,58.8-238.6,105.3-198.7-185.5-312-230S678.9,370.8,637.1,357.4s-84.9-55.3-151.1-4.7c-17.6,13.3-53.2,73.9-71,98.6-46,64.4-117.8,25.8-184.2-44.8C159.4,330.7,3,417.1,3,417.1"/>
                <path class="cls-2" d="M1433.7,368s-57.9,56.6-239.4,102-199-185.9-310.4-233.2S683.8,364.1,640.3,355.4s-85.3-55.6-153-6.1c-19.3,14.1-60.6,75.1-79.8,99.2-47.6,59.2-111.2,18.5-178.4-48C155.2,327.3,3,414,3,414"/>
                <path class="cls-2" d="M1437.3,373.3S1380.2,427.6,1197,472,997.8,285,888.2,235.4,690.6,357.7,643.3,353.3c-45-4.2-85.7-55.9-154.7-7.4-21,15-67.6,76.3-88.5,99.5-48.7,54-104.9,11.3-172.7-51.1C151,324.1,3,410.9,3,410.9"/>
                <path class="cls-2" d="M1440.8,378.7s-56.1,52-241,95.3S1002.1,286.9,892.3,234.1C784.5,182.3,696.2,351,646.6,351.3c-46.8.4-86.3-56.4-156.5-8.6-23,15.6-74.9,77.2-97.5,99.9-49.5,49-98.5,4.1-166.7-54.2C146.6,320.7,3,407.6,3,407.6"/>
                <path class="cls-2" d="M1444.3,384.1s-55.4,49.6-241.8,92-197.6-187.8-306-243.2C790.4,178.6,701.9,344.2,649.6,349.3c-48.3,4.7-86.9-56.9-158.3-9.9-24.6,16.2-81.7,78.4-106.3,100.3-49.7,44.1-92.1-2.9-160.9-57.4C142.2,317.5,3,404.5,3,404.5"/>
                <path class="cls-2" d="M1447.9,389.4s-54.7,47.5-242.7,88.6S1007.7,289.6,900.7,231.6C796.4,175,707.3,337.3,652.7,347.3c-49.8,9.1-87.5-57.5-160.2-11.2-26.4,16.8-84.8,84.8-115,100.7-41.2,48.4-85.8-9.9-155.1-60.5C137.6,314.2,3,401.3,3,401.3"/>
                <path class="cls-2" d="M1451.4,394.7s-53.7,45.1-243.5,85.3S1010.5,290.8,905,230.3C802.4,171.4,713.1,330.4,656,345.2c-51.5,13.3-88.3-58.2-162.1-12.5-28.3,17.6-91.5,86.9-123.9,101-41.2,44.8-79.8-16.8-149.2-63.5C132.9,311,3,398.2,3,398.2"/>
                <path class="cls-2" d="M1455,400.1s-52.9,42.7-244.4,81.9S1013.3,292.2,909,229c-100.8-61.1-190.7,94.3-250,114.1-53,17.8-89-58.7-163.9-13.6-30,18.1-98.1,88.8-132.7,101.3-41,40.9-73.8-23.6-143.4-66.7C128.2,307.8,3,394.9,3,394.9"/>
                <path class="cls-2" d="M1458.6,405.4s-52.1,40.4-245.2,78.5S1016.1,293.5,913.3,227.7c-99-63.5-189.3,88.4-251,113.3-54.8,22-89.8-59.5-165.7-15C464.5,344.6,391.8,416.7,355,427.7c-40.9,37.2-67.7-30.4-137.4-69.8C123.4,304.9,3,391.8,3,391.8"/>
                <path class="cls-2" d="M1462.1,410.7s-51.2,38.2-245.9,75.3S1018.9,294.8,917.7,226.4C820.3,160.6,729.4,309.2,665.4,339c-56.4,26.2-90.5-60.3-167.5-16.3-33.8,19.4-111.4,92.9-150.3,102.2-40.9,33.4-61.9-37.1-131.7-73C118.6,302,3,388.5,3,388.5"/>
                <path class="cls-2" d="M1465.7,416s-50.4,35.9-246.8,72S1021.7,296.2,921.8,225.2C826.3,157.3,734.9,302.1,668.6,337c-58.1,30.4-91.3-61.1-169.4-17.6C463.5,339.2,381.1,414.1,340,421.8c-40.8,29.6-56.1-43.6-125.9-76C113.5,299.2,3,385.4,3,385.4"/>
                <path class="cls-2" d="M1469.2,421.4s-49.4,33.5-247.5,68.5-197.2-192.4-295.6-266C832.2,153.6,740.5,295.1,671.8,335c-59.9,34.7-92-61.9-171.3-18.8-37.5,20.4-124.7,96.7-167.9,103-40.7,25.8-50.2-50.3-120.1-79.3C108.5,296.6,3,382.3,3,382.3"/>
                <path class="cls-2" d="M1472.8,426.7s-48.7,31.2-248.4,65.2-197.1-193-294.2-269.4c-92-72.4-184.4,65.4-255.4,110.3-61.4,38.9-92.8-62.7-173.1-20-39.4,20.9-131.1,98.5-176.6,103.1-40.7,22.2-44.4-56.5-114.3-82.2C103.4,294.3,3,379,3,379"/>
                <path class="cls-2" d="M1476.4,432.2s-48,28.9-249.3,61.8S1030,300.3,934.5,221.4c-90.4-74.7-183.3,59.5-256.4,109.5-63.2,43.2-93.6-63.5-174.9-21.3-41.3,21.4-138,100.6-185.5,103.7-40.6,18.4-38.6-62.9-108.4-85.4C98.5,292,3.1,376,3.1,376"/>
                <path class="cls-2" d="M1479.9,437.4s-47,26.7-250,58.5-197.1-194.2-291.2-276c-88.6-76.9-182,53.9-257.5,108.9-64.9,47.4-94.4-64.5-176.7-22.7-43.1,22-145.5,94.8-194.3,104.1-42.3,7.9-32.9-69.2-102.6-88.6C93.2,289.7,3,372.7,3,372.7"/>
                <path class="cls-2" d="M1483.4,442.7s-46.3,24.4-250.8,55.3S1035.5,303.1,942.9,218.7c-86.9-79.1-181,48-258.5,108.1-66.7,51.7-95.2-65.4-178.6-23.9-45.1,22.4-151.7,97.5-203.2,104.4-41.4,5.5-27-75.3-96.7-91.7C88.2,287.9,3,369.5,3,369.5"/>
                <path class="cls-2" d="M1487,448.1s-45.4,21.8-251.8,51.8S1038.3,304.5,947,217.5c-85.2-81.4-179.8,42.1-259.5,107.3C619,380.6,591.4,258.4,507,299.6c-47,22.9-157.9,100.9-212,104.9-40.8,2.9-21.2-81.3-90.9-94.9C83.3,286.1,3,366.3,3,366.3"/>
                <path class="cls-2" d="M1490.5,453.3s-44.6,19.7-252.6,48.6S1040.7,306,951.3,216.2c-83.8-83.5-178.7,36.4-260.8,106.5-70.3,60.4-96.7-67.1-182.3-26.4-48.8,23.3-164.3,104.5-220.8,105.1-40.4.5-15.2-87.2-85-97.8C78,284.5,2.9,363.2,2.9,363.2"/>
                <path class="cls-2" d="M1494.1,458.7s-43.8,17.3-253.5,45.1S1043.5,307.3,955.4,214.9c-82-85.8-177.7,30.4-261.7,105.7-72.2,64.4-97.6-68.1-184.1-27.7-50.9,23.8-171,108.3-229.7,105.6-40.1-1.9-9.3-93.1-79.3-101.1C73.3,283.1,3,360,3,360"/>
                <path class="cls-2" d="M1497.6,464s-42.9,15-254.2,41.8S1046.5,308.7,959.7,213.6c-80.3-88.1-176.5,24.7-262.8,104.9C623,387.2,598.5,249.4,511,289.6c-52.8,24.1-177.6,112.2-238.4,105.8-40.1-4.2-3.3-99.1-73.4-104.2C68.3,281.7,3,356.7,3,356.7"/>
              </g>
              <g>
                <path class="cls-3" d="M1491.2,696.5S1224.3,353.6,905.8,316.8c-121.7-14-120.4-93.7-240.9-78-90.5,11.7-121.5-108.4-271.8-8.8-75.1,49.7-204,32.1-257.5,52.8C15.1,329.6,3,356.8,3,356.8"/>
                <path class="cls-3" d="M1491.4,687.5s-70.3-87.5-187-176.4C1194.8,428,1059.2,333.4,907.7,312.9c-120.2-16.7-121.5-90-240.8-71.8a95.4,95.4,0,0,1-25.6.7c-58.1-5.6-93.7-65.4-174.1-43-21.2,5.9-45.1,16.4-73.1,33.9-47.6,29.5-115.7,31.9-172.7,34.1-33.8,1.3-64.3,3.4-84.7,11.1C18,322.3,3,351,3,351"/>
                <path class="cls-3" d="M1491.6,678.7s-68.9-83.9-189.7-167.8C1188.5,431.8,1059,332.6,909.8,309,790.9,290,787.1,222.5,669,243.5a108,108,0,0,1-25.4,1.3c-58.8-3.1-94-65.6-174.6-42.6-21.4,6.2-45.7,16.5-73.9,33C347.3,263,279.7,263,222.9,263.3c-33.3.2-64,1.9-84.8,9.6C20.9,315.1,3,345,3,345"/>
                <path class="cls-3" d="M1492,669.7s-67.9-79.8-192.4-159.1c-117.5-74.7-240.9-179.2-387.7-205.7C794.2,283.6,788.1,222.2,671,245.7a125.7,125.7,0,0,1-25.2,2.3c-59.5-.7-94.1-66-175-42.1-21.7,6.4-46.2,16.5-74.4,31.8-48.5,26.2-115.7,23.8-172,22.1-32.7-.8-63.5.5-84.9,7.9C23.9,308.1,3,339.2,3,339.2"/>
                <path class="cls-3" d="M1492.2,660.7s-66.7-75.9-195.1-150.3c-121.4-70.5-238.6-180-383-209.5-116.5-23.8-125-79.1-240.9-52.9a123.7,123.7,0,0,1-25,2.9c-60.4,1.8-94.4-66-175.6-41.4a491,491,0,0,0-75.1,30.7c-48.9,24.6-115.8,19.9-171.6,16.3-32.3-2.1-63.2-1.1-85.1,6.3C27,301.1,3,333.4,3,333.4"/>
                <path class="cls-3" d="M1492.4,651.8s-65.6-71.9-197.7-141.7c-125.6-66.2-236.6-180.9-378.6-213.3C801,270.6,789.9,221.6,675.2,250.3a132.2,132.2,0,0,1-25,3.6c-61.2,4.4-94.6-66.2-176-40.8a616.7,616.7,0,0,0-75.8,29.6c-49.3,22.9-115.8,15.9-171.3,10.3-31.7-3.1-62.8-2.5-85.2,4.8C30.1,294.2,3,327.6,3,327.6"/>
                <path class="cls-3" d="M1492.6,642.8s-64.3-67.8-200.4-133c-129.5-61.7-234.4-181.6-374-216.9-113.9-28.7-127.3-71.5-240.9-40.2a150.8,150.8,0,0,1-24.9,4.3c-62.1,7-94.7-66.4-176.4-40.3-22.9,7.3-47.9,16.4-76.5,28.6-49.8,21.3-115.8,12.1-171,4.3-31.2-4.2-62.4-4-85.4,3.2C33.3,287.2,3,321.7,3,321.7"/>
                <path class="cls-3" d="M1493,633.9s-63.4-63.9-203.2-124.2C1156.2,452.1,1057.6,327,920.2,289c-112.5-31.3-128.3-67.9-240.9-34a163.3,163.3,0,0,1-24.6,5.2c-62.9,9.5-94.9-66.7-176.9-39.7-23.1,7.6-48.5,16.4-77.1,27.5-50.2,19.5-115.9,8-170.5-1.5-30.8-5.5-62.1-5.6-85.6,1.5C36.2,280.5,2.9,315.9,2.9,315.9"/>
                <path class="cls-3" d="M1493.1,625s-62.1-59.9-205.8-115.5C1149.7,456.3,1057.2,326,922.4,285.1c-111.2-33.8-129.6-64.3-241-27.7a155,155,0,0,1-24.4,5.9c-63.8,12.2-95.2-66.8-177.3-39.2-23.5,7.8-49,16.4-77.7,26.4-50.7,17.9-115.9,4.2-170.2-7.5-30.4-6.6-61.7-6.9-85.8-.1C39.5,273.6,3,310.1,3,310.1"/>
                <path class="cls-3" d="M1493.4,616.1s-61.2-55.8-208.5-106.7c-141.8-48.9-228-184.6-360.5-228.3-110-36.3-130.7-60.5-240.9-21.3a231.9,231.9,0,0,1-24.4,6.7c-64.6,15-95.4-67-177.9-38.6-23.7,8.1-49.5,16.3-78.3,25.3-51.3,16.1-116,.4-169.9-13.4-29.8-7.8-61.3-8.5-85.8-1.7C42.7,267,3,304.2,3,304.2"/>
                <path class="cls-3" d="M1493.6,607.2s-60-51.8-211-98c-145.9-44.6-225.9-185.6-356.1-232.1-108.7-38.8-131.9-57-240.9-15a230.7,230.7,0,0,1-24.1,7.4c-65.5,17.7-95.5-67.2-178.3-38-24.1,8.5-50.2,16.2-79,24.2-51.7,14.5-115.9-3.5-169.4-19.4-29.4-8.6-61.1-9.9-86.1-3.2C45.9,260.3,3,298.4,3,298.4"/>
                <path class="cls-3" d="M1494,598.2s-59.1-47.7-213.9-89.3c-150-40.2-223.8-186.6-351.5-235.7-107.5-41.4-133-53.4-240.9-8.9a220.2,220.2,0,0,1-24,8.2C597.4,293,568,205.3,484.9,235.1c-24.3,8.6-50.6,16.1-79.6,23.1-52.1,12.6-116-7.4-169.1-25.4-28.8-9.7-60.6-11.3-86.2-4.8C49.2,253.7,3.1,292.5,3.1,292.5"/>
                <path class="cls-3" d="M1494.1,589.2s-58-43.6-216.5-80.5c-154-35.9-221.6-187.5-346.9-239.5-106.1-44-134.2-49.7-241-2.5-8.1,3.6-16.1,6.2-23.8,8.8-67.3,23.4-96-67.4-179.3-36.8-24.8,9-51.3,16-80.3,22.2-52.6,10.9-116-11.4-168.7-31.3-28.3-10.8-60.3-12.8-86.4-6.4C52.3,247.1,3,286.6,3,286.6"/>
                <path class="cls-3" d="M1494.4,580.2s-56.9-39.4-219.2-71.7C1117,477.1,1055.8,319.8,932.7,265.2c-104.8-46.6-135.4-45.9-240.9,3.8-8.2,3.9-16.1,6.8-23.8,9.7-68.1,26.2-96.1-67.6-179.8-36.3-25,9.3-51.9,15.9-81,20.9-53.1,9.3-116-15-168.2-37.2-27.9-11.9-59.9-14.1-86.7-8C55.3,240.7,2.9,280.9,2.9,280.9"/>
                <path class="cls-3" d="M1494.7,571.4s-55.9-35.3-221.9-63c-162.3-27-217.3-189.8-337.9-247.2C831.3,212,798.4,218.9,694,271.3c-8,4-15.9,7.2-23.5,10.4-68.9,29.2-96.3-67.7-180.2-35.9-25.4,9.7-52.5,16-81.5,20-53.8,7.5-116.2-18.7-168.2-43.2-27.3-12.9-59.4-15.6-86.6-9.5C58.8,234.2,3,275,3,275"/>
                <path class="cls-3" d="M1494.9,562.4s-54.8-31.3-224.7-54.2c-166.3-22.7-215.1-191-333.4-250.9-102.2-51.9-137.6-38.7-240.9,16.3-8,4.2-15.9,7.7-23.4,11.1-69.5,32.2-96.4-67.8-180.7-35.2-25.7,10-53.1,16-82.1,19-54.3,5.7-116.2-22.6-167.7-49.2-26.9-13.9-59.1-17-86.9-11.2-93,19.5-152,61.1-152,61.1"/>
                <path class="cls-3" d="M1495.1,553.5s-53.7-27.1-227.2-45.6C1097.4,489.8,1055,316,939,253.3,837.9,198.8,800.2,218.6,698,276c-7.8,4.5-15.8,8.1-23.2,11.9-70.3,35.1-96.6-68-181.1-34.7-26,10.3-53.7,15.8-82.9,17.9C356,275,294.5,244.7,243.5,215.9c-26.4-14.9-58.7-18.4-87-12.8C65.2,221.3,3,263.3,3,263.3"/>
                <path class="cls-3" d="M1495.4,544.6s-52.6-22.9-229.9-36.8c-174.6-13.9-210.7-193.2-324.4-258.5-99.6-57.2-140-31-240.9,28.9-7.8,4.7-15.7,8.7-23.1,12.7C606,329,580.2,222.7,495.4,256.8c-26.4,10.6-54.3,15.7-83.5,16.8-55.2,2.2-116.4-30-167-61.1-25.9-15.9-58.3-19.7-87.2-14.2C68.6,215,3,257.6,3,257.6"/>
                <path class="cls-3" d="M1495.7,535.5s-51.6-18.6-232.8-28c-178.7-9.3-208.5-194.3-319.8-262.2-98.2-59.9-141-27.4-240.9,35.3-7.7,4.8-15.5,9.1-23,13.3-71.7,41.2-97-68.2-182.1-33.5-26.6,10.9-54.9,15.6-84,15.7-55.9.3-116.6-33.7-166.6-66.9-25.6-16.9-57.9-21.2-87.5-15.9C71.8,208.6,3,251.6,3,251.6"/>
                <path class="cls-3" d="M1495.9,526.7s-50.6-14.6-235.4-19.4c-182.8-4.7-206.3-195.4-315.4-265.9-96.7-62.6-142.1-23.7-240.9,41.5-7.6,5.1-15.2,9.6-22.8,14.2-72.5,44.1-97.3-68.5-182.7-33.1-26.9,11.3-55.4,15.5-84.7,14.7-56.4-1.6-116.6-37.6-166.4-73-25-17.9-57.5-22.5-87.6-17.6C74.8,202.1,2.8,245.7,2.8,245.7"/>
                <path class="cls-3" d="M1496.1,517.7s-49.4-10.3-238.1-10.5c-186.9-.4-204-196.7-310.8-269.8-95.5-65.3-143.3-20-240.9,47.8-7.6,5.3-15.1,10.1-22.6,14.9-73.1,47.4-97.4-68.5-183.1-32.3-27.3,11.4-56,15.3-85.4,13.5-56.8-3.4-116.7-41.2-165.9-78.8-24.7-19-57.1-23.9-87.7-19.2C78.3,196.1,3,239.9,3,239.9"/>
                <path class="cls-3" d="M1496.5,508.7s-49.8-5.9-240.8-1.8S1053.9,309.1,949.4,233.4c-94.1-68.1-144.5-16.3-241,54-7.4,5.5-15.1,10.6-22.5,15.7-73.7,50.4-97.5-68.5-183.6-31.8-27.6,11.9-56.6,15.1-86,12.4-57.3-5.2-116.9-44.8-165.6-84.8-24.2-19.9-56.7-25.1-87.9-20.8C81.6,189.8,3,234.1,3,234.1"/>
                <path class="cls-3" d="M1496.7,499.9s-48.6-1.8-243.5,6.8S1053.7,307.6,951.5,229.5c-92.7-70.9-145.6-12.6-241,60.4-7.4,5.7-14.9,11-22.3,16.4-74.4,53.4-97.7-68.8-184-31.3-27.9,12.1-57.2,15-86.6,11.3-57.8-7.2-117.1-48.5-165.3-90.8-23.8-20.9-56.3-26.5-88-22.3C84.8,183.5,3,228.2,3,228.2"/>
                <path class="cls-3" d="M1496.9,490.9s-47.1,2.1-246.2,15.7S1053.6,306.1,953.5,225.4c-91.2-73.5-146.7-8.8-241,66.7-7.3,6-14.8,11.6-22.2,17.2-74.9,56.6-97.9-68.6-184.6-30.7-28.3,12.4-57.7,15-87.4,10.4-58.3-9.1-117.2-52.1-164.8-96.7-23.3-21.9-55.8-27.7-88.2-23.9-77.3,8.9-162.4,54-162.4,54"/>
                <path class="cls-3" d="M1497.1,482s-45.6,6.2-248.7,24.3-195-201.5-292.9-284.7c-89.6-76.4-147.8-5.2-240.9,73-7.3,6.1-14.7,12.1-22.1,17.9-75.4,59.7-98-68.8-184.9-30.1-28.6,12.8-58.3,14.8-88,9.2-58.8-10.9-117.5-55.9-164.5-102.7-23-22.9-55.6-28.8-88.4-25.5C91.4,171.2,3,216.6,3,216.6"/>
                <path class="cls-3" d="M1497.5,473s-44.3,10.5-251.6,33S1053.5,303.1,957.7,217.6C869.6,138.2,808.6,216,716.6,297c-7,6.2-14.3,12.4-21.8,18.6-75.9,62.9-98.2-69-185.5-29.5-28.9,13.1-58.8,14.7-88.6,8.2-59.2-12.9-117.6-59.6-164.1-108.7-22.6-23.8-55.1-30-88.5-27-73.4,6.7-165,52.3-165,52.3"/>
                <path class="cls-3" d="M1497.6,464s-42.9,15-254.2,41.8S1053.3,301.9,959.7,213.6s-160,16.2-262.8,104.9c-76.4,66-98.4-69.1-185.9-28.9S326.7,259.1,258,182,3,204.9,3,204.9"/>
              </g>
              <g>
                <path class="cls-4" d="M1439.6,513.8c-211.3-223-454.2-176.5-454.2-176.5C834.5,381.1,776.8,468.4,671,387.8c-96.6-73.7-144.7-78.6-189.5-26.8-34.2,39.5-68.2,156.5-128.6,149C273,500,233.3,394.3,190.1,387.8,94.1,373,3,444.6,3,444.6"/>
                <path class="cls-4" d="M1439.2,508.4c-204.6-215.7-441.6-168.6-447.3-167-152,42.9-208.2,120.9-314.4,41.7-97.3-72.5-145.8-71.9-191.2-22-34.4,38.1-70,151.8-128.8,146.7-77.6-6.6-119.7-109.1-165.3-117.1C95.9,373.6,3,451.8,3,451.8"/>
                <path class="cls-4" d="M1438.6,503.2c-197.6-208.5-428.8-161-440.2-157.7-152.9,43-207.9,110.9-314.5,32.8C586,306.9,536.7,313.1,491,361.1c-34.8,36.6-71.7,146.8-128.9,144.5-75.5-3.2-119.7-102.4-167.8-112C97.8,374.4,3,458.8,3,458.8"/>
                <path class="cls-4" d="M1438,498.1c-190.8-201.5-416.1-153.3-433.1-148.6-153.7,43.3-207.5,100.7-314.5,24C592,303.2,542.1,315,495.9,361.2c-35.1,35-73.4,141.9-129.1,142.1-73.1.5-119.6-95.7-170.3-106.7C99.6,375.4,3,466,3,466"/>
                <path class="cls-4" d="M1437.5,492.9c-184-194.3-403.4-145.6-426.1-139.2-154.6,43.5-207.3,90.5-314.5,15-99.2-69.3-149.5-51.9-196.2-7.6-35.3,33.5-75,137-129.2,139.9-71,3.9-119.8-88.9-173-101.6C101.5,376.6,3,473.2,3,473.2"/>
                <path class="cls-4" d="M1436.9,487.5c-177.2-187-390.7-137.7-419.1-129.8-155.4,43.7-207,80.4-314.5,6.3-99.9-68.3-150.8-45.2-197.9-2.9-35.6,32-76.6,132-129.3,137.6-68.5,7.2-119.6-82.2-175.5-96.5C103.4,377.6,3,480.1,3,480.1"/>
                <path class="cls-4" d="M1436.5,482.4c-170.4-179.8-378-130.2-412.2-120.5-156.2,43.8-206.4,69.9-314.5-2.6-100.3-67.4-152-38.6-199.4,1.9-35.9,30.5-78.3,127.2-129.7,135.4-65.9,10.7-119.5-75.4-177.8-91.1C105.3,379,3,487.5,3,487.5"/>
                <path class="cls-4" d="M1435.9,477.2C1272.4,304.6,1070.6,354.8,1030.8,366c-157,44-206,59.8-314.5-11.3-101-66.4-153-32-201,6.6-36.2,29-79.7,122.2-129.8,133.2-63.6,13.9-119.6-68.7-180.4-86.1-97.9-28-201.9,86.4-201.9,86.4"/>
                <path class="cls-4" d="M1435.4,472c-156.8-165.4-352.7-114.7-398.2-102-157.8,44.2-205.6,49.6-314.5-20.2-101.6-65.3-154.3-25.3-202.8,11.4-36.4,27.6-81.2,117.3-130,130.9-61,17.2-119.5-61.9-182.9-80.9C108.8,381.6,3,501.8,3,501.8"/>
                <path class="cls-4" d="M1434.9,466.7c-150-158.3-340-107-391.2-92.6-158.6,44.4-205.4,39.4-314.5-29.2C627,280.8,573.7,326.4,524.7,361.1c-36.6,26-82.5,112.1-130.1,128.7C336.1,510.2,275,434.7,209,414,110.7,383.2,3,508.9,3,508.9"/>
                <path class="cls-4" d="M1434.2,461.5c-143-151-327.2-99.3-384.2-83.3-159.3,44.7-204.8,29.4-314.4-37.9-102.9-63.1-156.5-11.8-205.9,21-36.9,24.4-84,107-130.3,126.3-55.8,23.5-119.6-48-188-70.5C112.5,384.6,3.1,516.2,3.1,516.2"/>
                <path class="cls-4" d="M1433.8,456.4c-136.3-143.9-314.6-91.5-377.1-74-160.2,44.8-204.6,19.2-314.6-46.8-103.5-62.1-157.7-5.1-207.6,25.8-37.2,23-85.4,101.8-130.5,124.1-53.4,26.4-119.7-41.3-190.6-65.6C114.2,386.1,3,523.2,3,523.2"/>
                <path class="cls-4" d="M1433.2,451.1c-129.5-136.5-301.9-83.7-370.1-64.7-161,45-204.4,9-314.6-55.6-104.2-61.1-158.9,1.5-209.3,30.4-37.5,21.4-86.8,96.5-130.6,121.9-50.8,29.3-119.6-34.2-193.1-60.4C116,387.6,3,530.4,3,530.4"/>
                <path class="cls-4" d="M1432.7,445.8c-122.7-129.3-289.2-76-363.1-55.3-161.9,45-204-1.3-314.6-64.5-104.8-60-160.1,8.2-211,35.2-37.7,19.9-88.3,91.1-130.9,119.6-48.1,32.2-119.5-27.2-195.5-55C117.8,389.2,3,537.5,3,537.5"/>
                <path class="cls-4" d="M1432.2,440.7c-115.8-122.2-276.4-68.4-356-46.1-162.8,45.3-203.7-11.3-314.7-73.3-105.5-58.9-161.1,15-212.6,40-37.9,18.6-89.6,85.8-131,117.5-45.8,34.9-119.7-20.4-198.1-50C119.6,390.8,3,544.6,3,544.6"/>
                <path class="cls-4" d="M1431.5,435.5c-108.9-115.1-263.6-60.5-348.9-36.8-163.6,45.6-203.4-21.5-314.7-82C661.8,259,605.6,338.2,553.6,361.4c-38.1,17.1-91.1,80.4-131,115.1-43.3,37.6-119.8-13.3-200.7-44.8C121.3,392.5,3,551.9,3,551.9"/>
                <path class="cls-4" d="M1431.1,430.2c-102.2-107.8-251-52.8-342-27.4-164.4,45.7-203.1-31.6-314.7-91C667.7,255,610.9,340.1,558.5,361.2c-38.4,15.6-92.7,74.9-131.3,113-40.8,40.1-119.8-6.4-203.1-39.6C122.9,394.2,3.1,559.1,3.1,559.1"/>
                <path class="cls-4" d="M1430.5,425c-95.5-100.7-238.3-45.1-335.2-18.2C930.2,452.7,892.7,365,780.8,307c-107.5-55.7-164.7,35-217.5,54.3-38.6,14-94.4,69.3-131.5,110.5-38.6,42.9-120.1.8-205.7-34.4C124.6,395.7,3,566,3,566"/>
                <path class="cls-4" d="M1430,419.8c-88.6-93.5-225.6-37.3-328-8.8-166,45.9-202.4-52-314.7-108.7C679.2,247.7,621.7,344,568.2,361.4c-38.8,12.6-95.5,63-131.7,108.4s-120.1,7.8-208.2-29.3C126.3,397.5,3,573.4,3,573.4"/>
                <path class="cls-4" d="M1429.5,414.7c-81.8-86.4-212.9-29.6-321,.4C941.8,461.3,906.6,353,793.8,297.6,685,244.3,627,346.2,572.9,361.5c-39,11.1-97.7,58.2-131.8,106.1s-120.2,15-210.8-24C128,399.2,3,580.5,3,580.5"/>
                <path class="cls-4" d="M1429,409.4c-75-79.1-200.3-21.9-314.2,9.8-167.4,46.4-201.5-72.4-314.6-126.4C690.8,240.5,632.1,348,577.7,361.3c-39.3,9.6-100.2,53.5-132,103.9s-120.2,22.1-213.2-18.9C129.7,401,3,587.5,3,587.5"/>
                <path class="cls-4" d="M1428.4,404.1c-68.2-71.9-187.4-14-307.1,19.1C953,469.8,920,340.9,806.6,288c-110-51.2-169.1,62-224,73.3-39.5,8.2-101.5,46.9-132.2,101.6-29.7,53-120.4,29.2-215.8-13.8C131.3,402.7,3,594.7,3,594.7"/>
                <path class="cls-4" d="M1427.8,399c-61.3-64.8-174.6-6.1-299.9,28.3-169.2,47.1-201.1-92.5-314.8-143.9-110.7-50.2-170.2,68.6-225.7,78-39.7,6.9-103.4,41.3-132.3,99.3-27.7,55.6-120.6,36.4-218.3-8.6C133,404.5,3,601.9,3,601.9"/>
                <path class="cls-4" d="M1427.3,393.8c-54.5-57.6-162,1.6-292.9,37.7C964.3,478.7,933.6,328.8,819.6,278.6,708.2,229.5,648.3,354,592.2,361.4c-39.9,5.3-105.4,35.9-132.5,97.1C433.9,516.7,339,502,238.9,455.1,134.7,406.1,3,609.1,3,609.1"/>
                <path class="cls-4" d="M1426.8,388.5c-47.6-50.3-149.2,9.5-285.9,47C970,482.9,940.4,322.7,826.1,273.8c-112-47.9-172.6,82.1-229.1,87.5-40.2,3.9-107.5,30.3-132.7,94.8-23.9,60.8-121,50.7-223.4,1.7C136.3,407.9,3,616.2,3,616.2"/>
                <path class="cls-4" d="M1426.3,383.3c-40.9-43.1-136.6,17.1-278.9,56.3C975.7,487.1,947.1,316.8,832.5,269c-112.7-46.8-173.6,89.1-230.6,92.4-40.4,2.4-109.5,24.7-133,92.5-21.9,63.6-120.7,58-225.9,6.8S3,623.3,3,623.3"/>
                <path class="cls-4" d="M1425.7,378.1c-34-36-123.9,24.9-272,65.5C981.3,491.3,954,310.7,839,264.3c-113.4-45.7-174.7,95.8-232.3,97.2-40.6,1-111.6,19.2-133,90.3-19.9,66.1-122.7,64.3-228.3,12.1S3,630.5,3,630.5"/>
                <path class="cls-4" d="M1425.2,373c-27.3-28.8-111.1,32.5-265.1,74.7C986.9,495.6,959.6,304.1,845.3,259.6S669.5,362.1,611.5,361.5c-40.9-.4-113.8,13.7-133.2,88-18.1,69-121.5,72.3-230.9,17.3C141.2,413.2,3,637.6,3,637.6"/>
                <path class="cls-4" d="M1424.7,367.7c-20.4-21.5-98.4,40.4-258.1,84.1-174.1,48.1-200-153.6-314.8-197S674.7,364.1,616.3,361.4c-41.1-1.9-115.8,8.3-133.4,85.8-16.1,71.6-121.6,79.6-233.5,22.3C142.8,415,3,644.8,3,644.8"/>
                <path class="cls-4" d="M1424.1,362.4c-13.5-14.3-85.7,48.1-250.8,93.4C998.4,504,973.7,292.1,858.3,250S680.2,366.1,621.1,361.4c-41.2-3.2-118,2.9-133.5,83.5-14.3,74.6-122,86.9-236.1,27.7C144.4,416.8,3,651.9,3,651.9"/>
                <path class="cls-4" d="M1423.6,357.3c-6.9-7.2-73,55.8-244,102.7C1004,508.3,980.8,286.5,864.7,245.3S685.5,368.4,626,361.4c-41.7-4.6-120.2-2.4-133.9,81.3-12.4,77.3-122.1,94-238.6,32.7C145.9,418.6,3,659.1,3,659.1"/>
                <path class="cls-4" d="M1423.1,352s-60.3,63.6-237,112S987.9,280.6,871.2,240.6,690.8,370.3,630.8,361.5c-42-6-122.3-7.8-133.9,79.1-10.6,80.2-122.3,101.4-241,37.9C147.6,420.4,3,666.2,3,666.2"/>
              </g>
              <g>
                <path class="cls-4" d="M449.4,336c-52.8,24.1-116,65.8-176.8,59.4-40.1-4.2-3.3-99.1-73.4-104.2C68.3,281.7,3,356.7,3,356.7"/>
                <path class="cls-4" d="M452.9,333.6c-52.4,24-114.5,63.7-173.8,57-40.1-4.5-6.3-96.6-73.4-101-46.7-3.2-85.8,5-114.2,15.8a161.9,161.9,0,0,0-41.9,23.1C32.2,341.8,2.9,353.9,2.9,353.9"/>
                <path class="cls-4" d="M456.2,331.1c-51.9,23.9-112.8,61.7-170.5,54.6-40.1-4.9-9.2-93.9-73.5-97.8A302.8,302.8,0,0,0,96,303.8a149.2,149.2,0,0,0-43,22.8C43,334.2,12,342.4,2.9,351"/>
                <path class="cls-4" d="M459.8,328.7c-51.4,23.7-111.1,59.4-167.4,52.1-40.2-5.3-12.2-91.5-73.6-94.8-44.3-2.4-88.1,6.2-118.3,16.1-21.2,6.9-35.3,15.6-44,22.3C40.9,336.5,3,348,3,348"/>
                <path class="cls-4" d="M463.3,326.3c-51.1,23.6-109.5,57.3-164.2,49.6-40.3-5.7-15.3-88.9-73.8-91.7-43.1-2-89.4,6.8-120.3,16.3-22.4,6.9-36.8,15.7-45.1,22.1C45.2,334,3.1,345.2,3.1,345.2"/>
                <path class="cls-4" d="M466.8,324c-50.8,23.3-108,54.9-161.1,47.1-40.3-6.1-18.2-86.4-73.8-88.5-41.9-1.7-90.6,7.5-122.4,16.5-23.8,6.7-38.4,15.7-46.1,21.6C49.5,331.4,3,342.2,3,342.2"/>
                <path class="cls-4" d="M470.1,321.5c-50.3,23.1-106.2,52.8-157.9,44.6-40.3-6.5-21.2-83.7-73.9-85.4-40.7-1.3-91.8,8.1-124.4,16.7-25.2,6.6-39.8,15.7-47.2,21.3-13,10-63.8,20.6-63.8,20.6"/>
                <path class="cls-4" d="M473.6,319c-49.9,23.1-104.7,50.6-154.8,42.2-40.4-6.8-24.1-81.1-73.9-82.2-39.6-.9-92.9,8.7-126.6,16.8-26.4,6.5-41.2,15.7-48.2,21C58,326.2,3,336.5,3,336.5"/>
                <path class="cls-4" d="M477.1,316.7c-49.5,22.9-103,48.4-151.8,39.6-40.4-7.2-27.1-78.5-74-79.1-38.5-.4-94.2,9.1-128.6,17-27.8,6.2-42.9,15.8-49.2,20.6C62.4,323.5,3,333.6,3,333.6"/>
                <path class="cls-4" d="M480.7,314.2C431.6,337,379.2,360.3,332,351.3c-40.3-7.6-30.1-75.8-74-75.9-37.1-.1-95.4,9.7-130.7,17.2-29.1,6.2-44.3,15.8-50.2,20.3-10.4,8-74,17.7-74,17.7"/>
                <path class="cls-4" d="M484.1,311.9c-48.7,22.5-99.8,43.8-145.5,34.6-40.3-8.1-33-73.1-74.1-72.9-36,.4-96.6,10.2-132.8,17.4-30.5,6-45.9,15.8-51.2,20-9.6,7.4-37.9,16.8-37.9,16.8"/>
                <path class="cls-4" d="M487.5,309.5c-48.3,22.3-98.2,41.4-142.3,32.2-40.3-8.5-36.1-70.4-74.2-69.6-34.8.6-97.8,10.5-134.7,17.5-32,5.7-47.6,15.7-52.4,19.4-8.6,6.7-39.2,15.9-39.2,15.9"/>
                <path class="cls-4" d="M491,306.9c-47.9,22.2-96.5,39.3-139.3,29.7-40.3-8.9-40.4-67.6-74.2-66.5s-99.2,11.2-137,17.7c-33,5.7-48.8,15.9-53.2,19.2-7.7,6-40.4,15-40.4,15"/>
                <path class="cls-4" d="M494.5,304.6c-47.6,22.1-95.8,36.8-136.1,27.2s-41.7-65-74.4-63.4S183.7,280,145,286.2c-34.5,5.5-50.3,15.9-54.3,18.9C83.8,310.4,49.2,319,49.2,319"/>
                <path class="cls-4" d="M497.9,302.2C450.8,324.1,405.3,337,365,327s-45.1-62.1-74.4-60.3c-31.5,2-101.6,12.1-141,17.9-35.9,5.3-52,15.9-55.4,18.6-6,4.7-42.7,13-42.7,13"/>
                <path class="cls-4" d="M501.5,299.8c-46.7,21.6-91.7,32-129.9,22.2-40.4-10.5-48.1-59.3-74.4-57.2-30.4,2.4-103,12.5-143.2,18.1-37.2,5.1-53.5,16-56.4,18.3-5.2,4.1-43.9,12-43.9,12"/>
                <path class="cls-4" d="M504.9,297.4C458.6,318.9,415,327,378.3,317.1c-40.5-11-51.2-56.5-74.5-54-29.3,3.1-104.2,13.1-145.3,18.4-38.6,4.9-55,15.9-57.5,17.8-4.3,3.4-45.1,11.1-45.1,11.1"/>
                <path class="cls-4" d="M508.4,294.9c-45.9,21.5-88.4,27.4-123.6,17.3-40.5-11.4-54.1-53.4-74.6-50.8-28.1,3.6-105.4,13.5-147.4,18.5-40,4.7-56.6,16-58.5,17.6S58,307.6,58,307.6"/>
                <path class="cls-4" d="M511.8,292.5c-45.5,21.3-86.6,25-120.4,14.8-40.3-12.1-57.1-50.5-74.6-47.7-26.9,4.3-106.6,14-149.5,18.6-41.2,4.5-56.8,15.2-59.4,17.2s-47.5,9.2-47.5,9.2"/>
                <path class="cls-4" d="M515.3,290.1c-45.1,21.1-85,22.4-117.4,12.2-40.3-12.6-60.2-47.4-74.7-44.6-25.8,5.1-108.8,14.6-151.5,18.9s-58.9,15.5-60.5,16.8-48.6,8.2-48.6,8.2"/>
                <path class="cls-4" d="M518.8,287.8c-44.7,20.8-83.3,19.9-114.3,9.7-40.3-13.2-63-44.3-74.8-41.3-24.5,5.9-109.7,15-153.6,18.9s-60.6,15.8-61.5,16.5-49.8,7.3-49.8,7.3"/>
                <path class="cls-4" d="M522.3,285.2c-104.9,49.2-170.6-35.9-185.9-31-23.1,7.4-110.3,15.4-155.6,19.2s-62.6,16.2-62.6,16.2l-51,6.2"/>
              </g>
              <g>
                <path class="cls-5" d="M449.4,336s-76.4,26.2-134,43-61.9-92.9-116.2-87.6"/>
                <path class="cls-5" d="M449.2,336c-2.5,1.2-79,28.2-135.8,43.8s-59.1-93.3-114.2-88.4"/>
                <path class="cls-5" d="M449.1,336.1c-5.1,2.2-79.9,29.6-137.7,44.5C255.2,394.9,255,287,199.2,291.2"/>
                <path class="cls-5" d="M448.8,336.1c-7.5,3.5-81.5,31.3-139.5,45.3-55.3,13.2-53.5-94-110.2-90.2"/>
                <path class="cls-5" d="M448.8,336.2c-10.1,4.6-83.4,33.1-141.4,46-54.5,12.2-50.8-94.2-108.2-91"/>
                <path class="cls-5" d="M448.6,336.3c-12.6,5.7-85.1,34.6-143.4,46.8-53.6,10.9-47.8-94.6-106-91.7"/>
                <path class="cls-5" d="M448.4,336.3c-15,6.8-86.8,36.4-145.2,47.4-52.9,10-45.2-94.7-104-92.3"/>
                <path class="cls-5" d="M448.3,336.4c-17.6,8-88.6,38.1-147.2,48.1-52,8.9-42.3-94.9-102-93.1"/>
                <path class="cls-5" d="M448,336.4c-20,9.2-90.2,39.9-148.9,48.9-51.3,7.8-39.6-95.3-100-93.9"/>
                <path class="cls-5" d="M447.9,336.5c-22.6,10.3-92,41.6-151,49.6-50.3,6.8-36.7-95.6-97.8-94.9"/>
                <path class="cls-5" d="M447.8,336.5C422.8,348.1,354,380,295,386.9c-49.4,5.8-33.9-95.9-95.8-95.7"/>
                <path class="cls-5" d="M447.7,336.6C420,349.3,352.2,381.8,293,387.8c-48.5,4.8-31.3-96.2-93.9-96.4"/>
                <path class="cls-5" d="M447.5,336.6c-30.2,13.9-97.2,47.1-156.5,51.9-47.7,3.9-28.5-96.5-91.8-97.1"/>
                <path class="cls-5" d="M447.3,336.8c-32.7,15-98.9,48.8-158.3,52.4-46.9,2.9-25.7-96.6-89.8-97.8"/>
                <path class="cls-5" d="M447.1,336.8c-35,16.1-100.6,50.8-160.3,53.2-45.9,1.9-22.8-97-87.6-98.6"/>
                <path class="cls-5" d="M447,336.9c-37.6,17.2-102.2,52.7-162.1,54-45.1,1-20-97.3-85.7-99.4"/>
                <path class="cls-5" d="M446.9,336.9c-40.2,18.5-104,54.7-164.1,54.8-44.3.1-17.3-97.5-83.6-100.2"/>
                <path class="cls-5" d="M446.7,336.9C404,356.4,341,393.5,280.8,392.4c-43.4-.8-14.5-97.9-81.6-101.2"/>
                <path class="cls-5" d="M446.6,336.9c-45.2,20.7-107.5,58.6-167.9,56.2-42.5-1.6-11.7-98.3-79.5-101.9"/>
                <path class="cls-5" d="M446.4,337c-47.7,21.8-109.3,60.5-169.8,56.9-41.7-2.6-8.8-98.5-77.5-102.7"/>
                <path class="cls-5" d="M446.3,337.1c-50.3,23-111,62.7-171.6,57.6-41-3.2-6.1-98.8-75.5-103.3"/>
                <path class="cls-5" d="M446.1,337.1c-52.7,24.1-112.7,64.8-173.5,58.4-40.1-4.2-3.3-99.1-73.4-104.1"/>
              </g>
              <g>
                <path class="cls-2" d="M3,126.7S42.6-11.4,234.7,1.3C392.3,11.9,383,279.9,460.4,300.5s129.2-182.8,208.3-86.8c53,64.2,97.7,39.3,97.7,39.3s80.3-67.7,123.1-72.9,78.6,42.2,78.6,42.2,109,123.8,217.6,84.4,261.8,60,261.8,60"/>
                <path class="cls-2" d="M1449.5,370.5s-133.9-85.3-244.9-61a129.5,129.5,0,0,0-17.2,4.9c-108.7,38-214.9-83.5-216.3-86.3-.4-1.1-35.2-47.2-77-43.9-21.4,1.7-53.1,19-77.7,35s-42.9,31.5-44.3,31.1-45.6,24.1-97.8-36.6c-45.9-53.1-83-6.7-121.3,37.2-27.7,31.3-55.2,59.2-87,50.1-24.9-7.2-41.3-39-57.6-77.8C373.8,141.5,341.1,17.6,235.6,8.4,48.4-7.9,3,129.7,3,129.7"/>
                <path class="cls-2" d="M1451.4,374.2s-130.3-81.6-245.2-56.7a160.4,160.4,0,0,0-17.4,4.7C1080.3,359,976.5,239.7,974,234c-.9-2.3-34.7-47-75.3-45.7-21.2.8-52.3,15.9-76.7,30.5s-43.1,29.2-44.3,28.8c-2.8-.9-46.4,23.1-98.2-33.9-45.1-49.9-82.4-3.7-120.9,39.8-28.2,31.3-55.6,57.2-87.4,47.6-24.8-7.6-41.5-39-58.9-75.4C375.6,148.9,340.4,26.4,236.4,15.1,54.1-4.5,3,132.7,3,132.7"/>
                <path class="cls-2" d="M1453.3,378s-126.7-77.7-245.6-52.8a147.3,147.3,0,0,0-17.3,4.7c-108.6,35.6-209.7-81.6-213.6-90.2-1.3-3.3-34.1-47-73.6-47.2-20.9-.2-51.5,12.9-75.5,26.1s-42.7,26.9-44.3,26.3c-4.2-1.3-47.4,22.2-98.5-31.2-44.8-46.8-81.8-.6-120.7,42.5-28.6,31.6-56,55.6-87.6,45.4-24.9-8.1-42-39.1-60.3-73.3C377.5,156.4,340,35.5,237.2,22.1,59.8-.9,3,135.7,3,135.7"/>
                <path class="cls-2" d="M1455.2,381.7s-123.1-73.9-246-48.5a175.9,175.9,0,0,0-17.3,4.5C1083.3,372,984.7,257,979.8,245.6c-1.8-4.4-33.9-46.8-72.1-48.9-20.5-1.1-50.6,9.9-74.2,21.9s-42.2,24.7-44.5,24c-5.5-1.8-48,21.3-98.6-28.6-44.2-43.6-81.1,2.2-120.3,45.1-29,31.8-56.5,53.8-87.8,43-24.8-8.5-42.3-38.9-61.7-70.8-40.9-67.1-81-186.5-182.3-201.9C65.8,2.7,3,138.8,3,138.8"/>
                <path class="cls-2" d="M1457.1,385.5s-119.4-69.9-246.3-44.5a152.8,152.8,0,0,0-17.4,4.4c-108.5,32.9-204.6-79.7-210.6-94.1-2.4-5.5-33.5-46.8-70.4-50.5-20.4-2-49.7,6.9-73,17.6s-41.7,22.3-44.6,21.4c-6.9-2.3-48.9,20.4-98.8-25.8-43.7-40.5-80.8,5.2-120,47.6-29.5,32.1-56.9,52.1-88.2,40.7-24.8-8.9-42.8-39-63-68.6-43-62.1-85.5-179.8-185.5-197.5C71.5,6.4,3,141.8,3,141.8"/>
                <path class="cls-2" d="M1459.1,389.2s-115.9-66-246.7-40.3c-6,1.2-11.7,2.5-17.4,4.2-108.5,31.7-201.9-78.7-209.3-95.9-2.9-6.7-33.2-47-68.7-52.3-20.2-3-49,4.1-72,13.2s-41.2,20.2-44.6,19c-8.3-2.6-49.8,19.5-99.1-23.1-43.2-37.3-80.3,8.3-119.6,50.4-30.1,32.2-57.4,50.2-88.4,38.4-24.9-9.5-43-39.1-64.4-66.4C383.9,179,338.9,63.1,240.1,43,77.4,10.2,3,144.7,3,144.7"/>
                <path class="cls-2" d="M1461,393s-112.2-62.1-247.1-36.3c-5.9,1.1-11.7,2.6-17.4,4-108.6,30.5-199.4-77.8-208-97.8-3.2-7.8-33-47.1-67.1-53.9-19.9-4.1-48,.7-70.7,8.7s-40.8,17.9-44.8,16.7c-9.5-3.1-50.6,18.6-99.2-20.4-42.7-34.2-79.8,11.2-119.4,53-30.5,32.3-57.8,48.3-88.6,35.9-24.9-10-43.5-39-65.8-64C385.8,186.3,338.5,72.1,241,49.8,83.3,14,3,147.7,3,147.7"/>
                <path class="cls-2" d="M1462.9,396.7s-108.5-58.2-247.4-32.1c-5.9,1.1-11.8,2.4-17.4,4-108.5,29.3-196.7-76.9-206.6-100-3.8-8.8-32.6-47.2-65.4-55.5-19.8-5-45.8-2.6-69.5,4.5s-40.3,15.7-44.9,14.1c-11-3.6-51.6,17.7-99.3-17.6-42.3-31.2-79.4,14-119.2,55.7-31,32.5-58.2,46.6-88.8,33.7-25-10.5-43.9-39.2-67.3-61.8C387.8,194,338.2,81.6,241.9,57.1,89.2,18,3,150.8,3,150.8"/>
                <path class="cls-2" d="M1465,400.4s-105.1-54.2-247.9-28.1c-6,1.1-11.8,2.5-17.5,3.9-108.4,28-194.2-75.9-205.3-101.9-4.2-9.9-32.3-47.5-63.8-57.2-19.6-5.9-44.7-5.6-68.3.3-22,5.3-39.8,13.4-45,11.7-12.3-4-52.5,16.8-99.7-15-41.7-27.9-78.8,17.1-118.7,58.4-31.5,32.6-58.6,44.7-89.1,31.3-24.9-10.9-44.4-39.1-68.7-59.4-51.3-43-103.3-153.6-198.3-180.5C95.1,22.1,3,153.7,3,153.7"/>
                <path class="cls-2" d="M1466.7,404.1s-101.3-50.3-248.2-24c-5.9,1.2-11.7,2.4-17.4,3.9-108.5,26.7-191.6-75-203.9-104-4.7-11-32-47.7-62.1-58.8-19.5-7.1-43.7-8.5-67.1-4.1-21.5,4.1-39.2,11.2-45,9.3-13.6-4.4-53.2,16-99.7-12.2-41.3-25-78.4,20-118.4,61-32.2,32.9-59.1,42.9-89.4,28.9-24.9-11.3-44.8-39.1-70-57C392,209.1,337.6,100.2,243.8,70.8,101.1,26.2,3,156.7,3,156.7"/>
                <path class="cls-2" d="M1468.7,407.9s-97.7-46.3-248.6-19.8c-5.9,1-11.8,2.2-17.5,3.6-108.4,25.4-189-74-202.5-105.7-5.2-12.1-31.8-48.2-60.5-60.5-19.3-8.3-42.7-11.5-65.9-8.6-21.3,2.8-38.8,9-45.1,7-15-5.1-54.2,14.9-100.1-9.6-40.8-21.8-77.8,22.9-118,63.6-32.6,33.1-59.5,41-89.7,26.6-24.9-11.9-45.2-39.2-71.4-54.9-55.7-33-112.2-140-204.8-171.8C106.9,30.5,3,159.9,3,159.9"/>
                <path class="cls-2" d="M1470.7,411.6s-94.1-42.2-249-15.7c-6.1,1.1-11.9,2.3-17.6,3.5-108.4,24.1-186.4-73.1-201.1-107.7-5.8-13.1-31.4-48.7-58.8-62.1a127.9,127.9,0,0,0-64.9-12.9c-20.8,1.4-38.3,6.7-45.1,4.5-16.4-5.4-55.2,14-100.2-6.9-40.4-18.6-77.3,25.9-117.8,66.3-33.1,33.1-60,39.2-89.9,24.2-24.9-12.3-45.6-39.1-72.9-52.5C395.7,224,336.8,119.2,245.4,84.7,112.8,34.9,3,162.8,3,162.8"/>
                <path class="cls-2" d="M1472.6,415.5s-90.4-38.4-249.3-11.7c-6,1-11.9,2.2-17.6,3.4-108.5,22.9-183.8-72.2-199.8-109.7-6.1-14.2-31.2-49.3-57.2-63.9-18.9-10.5-40.6-17.4-63.6-17.1-20.5.2-37.7,4.4-45.2,2-17.9-5.8-56.2,13.1-100.5-4.1-40-15.5-76.8,28.7-117.5,69-33.6,33.2-60.3,37.3-90.2,21.9-24.9-12.9-46-39.3-74.2-50.3C397.7,231.6,336.4,128.7,246.4,91.8,118.8,39.5,3,165.8,3,165.8"/>
                <path class="cls-2" d="M1474.5,419.2s-86.7-34.2-249.7-7.6l-17.6,3.2c-108.4,21.7-181.1-71.2-198.4-111.6-6.6-15.3-30.7-49.9-55.5-65.5-18.7-11.9-39.6-20.3-62.4-21.5-20.1-1.1-37.4,2.3-45.3-.4-19.3-6.3-57.2,12.2-100.7-1.4-39.6-12.3-76.5,31.8-117.2,71.7-34.1,33.4-60.8,35.5-90.4,19.5-24.9-13.4-46.4-39.1-75.7-47.9-62-18.6-125.5-119.3-214.4-158.9C124.5,43.9,3,168.8,3,168.8"/>
                <path class="cls-2" d="M1476.5,423s-83.2-30.3-250.1-3.4c-6,.9-11.9,2-17.6,3.1-108.4,20.4-178.6-70.3-197.1-113.5-7.1-16.5-30.4-50.5-53.8-67.2-18.6-13.1-38.6-23.2-61.2-25.9-19.7-2.2-36.8-.1-45.4-2.9-20.6-6.7-58.2,11.4-101,1.4-39.3-9.2-75.8,34.6-116.7,74.2-34.8,33.5-61.2,33.6-90.8,17.1C518,292,496,266.7,465.9,260.3,401.7,246.6,335.7,148,248.2,105.6,130.4,48.6,3,171.7,3,171.7"/>
                <path class="cls-2" d="M1478.4,426.7s-79.5-26.2-250.4.6l-17.8,3.1C1102,449.5,1034.4,361,1014.6,314.9c-7.6-17.6-29.9-51.2-52.1-68.8-18.3-14.5-37.6-26.2-60.1-30.3-19.4-3.5-36.3-2.2-45.5-5.2-22-7.1-59.2,10.6-101.1,4.1-38.9-6.1-75.5,37.5-116.5,76.8-35.3,33.7-61.8,31.8-91.1,14.8-24.8-14.4-47.2-39.2-78.4-43.3-66.4-8.8-134.8-105.3-221-150.3C136.1,53.5,3,174.8,3,174.8"/>
                <path class="cls-2" d="M1480.3,430.4s-75.8-22.2-250.9,4.8l-17.6,2.9c-108.4,17.8-173.4-68.5-194.4-117.5-7.9-18.6-29.5-52-50.4-70.5-18-15.9-36.6-29-58.9-34.5-18.9-4.7-35.8-4.5-45.6-7.8-23.3-7.6-60.3,9.8-101.3,6.9-38.6-2.8-74.9,40.4-116.2,79.5-35.7,33.9-62.1,30-91.2,12.4-24.8-14.9-47.7-39.1-79.7-41-68.5-4-139.3-98.1-224.1-146.2C141.9,58.3,3,177.8,3,177.8"/>
                <path class="cls-2" d="M1482.2,434.1S1410,416,1231,443l-17.7,2.7c-108.3,16.7-170.8-67.6-193-119.3-8.5-19.7-28.8-52.6-48.7-72.2-17.7-17.1-35.6-31.8-57.8-38.7-18.6-6-35.3-6.9-45.6-10.1-24.8-8.1-61.2,8.9-101.6,9.5-38.2.4-74.5,43.4-115.8,82.1-36.3,33.9-62.5,28.1-91.5,10.2-24.8-15.5-48-39.3-81.2-38.7-70.5.9-143.8-90.9-227.2-141.9C147.5,63.3,3,180.8,3,180.8"/>
                <path class="cls-2" d="M1484.1,437.9s-68.5-14-251.5,13l-17.8,2.6c-108.2,15.4-168.1-66.6-191.5-121.2-9-20.9-28.3-53.5-47.2-73.9-17.2-18.6-34.6-34.8-56.5-43.2-18.3-7-35-9-45.9-12.5-26-8.5-62.2,8.3-101.8,12.2-37.8,3.7-74,46.3-115.5,84.7-36.7,34.2-63,26.4-91.9,7.8-24.8-15.9-48.4-39.1-82.5-36.5-72.6,6-148.4-83.5-230.5-137.4C152.9,68.5,2.8,183.8,2.8,183.8"/>
                <path class="cls-2" d="M1486,441.6s-64.9-9.8-251.9,17.1l-17.7,2.5c-108.3,14.1-165.6-65.7-190.2-123.2-9.4-22-28.7-55.5-45.5-75.6s-33.6-37.5-55.4-47.6c-17.8-8.2-34.3-11.2-45.9-15-27.4-8.9-64.5,7.8-102,15s-73.5,49.3-115.1,87.4c-37.5,34.3-63.4,24.6-92.2,5.5-24.6-16.3-48.7-39.1-83.8-34.1-74.9,10.9-153.4-76.1-233.8-133.3C158.6,73.6,3,186.9,3,186.9"/>
                <path class="cls-2" d="M1488,445.4s-61.2-5.8-252.3,21.3l-17.7,2.2c-108.2,13-163-64.7-188.9-125.1-9.9-23.1-27.6-55.8-43.8-77.2s-32.7-40.4-54.2-51.9c-17.7-9.4-34-13.5-45.8-17.4C856.4,187.9,820,204.6,783,215s-73,52.1-114.8,90.1c-37.9,34.5-63.8,22.6-92.4,3.1-24.6-16.8-49.2-39-85.2-31.8-76.9,15.8-158.2-68.7-236.9-129C164,78.7,3,189.9,3,189.9"/>
                <path class="cls-2" d="M1490,449.1s-57.7-1.6-252.7,25.4l-17.7,2.3c-108.2,11.5-160.4-63.8-187.5-127.2-10.4-24.1-26.6-56-42.1-78.9s-31.5-43-53.1-56.1c-17.2-10.6-33.4-15.8-45.8-19.9-30.3-9.7-65.8,6.5-102.5,20.4S716,270.2,674,307.9c-38.4,34.6-64.1,20.8-92.6.7-24.7-17.4-49.5-39.1-86.6-29.5-79,20.7-163.1-61.2-240.1-124.6C169.5,84.2,3.2,193,3.2,193"/>
                <path class="cls-2" d="M1491.9,452.9s-54,2.5-253.1,29.5c-6,.9-12.1,1.5-17.7,2.1-108.2,10.4-157.7-62.8-186.2-129-10.7-25.2-25.4-56.2-40.5-80.5s-30.6-46-51.7-60.6c-17-11.7-33-17.9-46.1-22.1-31.5-10.4-66.6,5.9-102.7,23s-72.1,58-114.1,95.4c-39,34.8-64.7,18.9-93-1.6-24.6-17.9-50-39-88.1-27.2-81.1,25.6-168.3-53.6-243.4-120.4C174.4,89.2,3,195.8,3,195.8"/>
                <path class="cls-2" d="M1493.9,456.6s-50.2,7.1-253.6,33.6c-6.1.8-12,1.5-17.7,1.9-108.2,9.2-155.2-61.9-184.8-130.9-11.3-26.4-24.3-56.5-38.8-82.2s-29.8-48.7-50.6-64.9a152.1,152.1,0,0,0-46.1-24.7c-33.1-10.6-67.3,5.3-102.9,25.9s-71.8,60.8-113.9,98c-39.6,34.8-65,17-93.2-4-24.6-18.5-50.3-39.1-89.4-24.9-83.2,30.4-173.5-45.8-246.6-116.1C179.4,94.5,3,198.9,3,198.9"/>
                <path class="cls-2" d="M1495.8,460.3s-46.7,11-253.8,37.7l-17.9,1.8c-108,7.8-152.5-61-183.4-133-11.7-27.5-23.4-56.7-37.2-84s-28.8-51.5-49.4-69.2c-16.5-14.1-32-22.5-46.2-27.1-34.4-11.2-68.2,4.4-103.1,28.5s-71.2,63.8-113.5,100.7c-40.1,35-65.5,15.1-93.5-6.3-24.6-18.9-50.8-39.1-90.8-22.6C421.6,322.1,328.2,248.6,257.1,175,184.4,99.8,3,201.9,3,201.9"/>
                <path class="cls-2" d="M1497.6,464s-42.9,15-254.2,41.8S1053.3,301.9,959.7,213.6s-160,16.2-262.8,104.9c-76.4,66-98.4-69.1-185.9-28.9S326.7,259.1,258,182,3,204.9,3,204.9"/>
              </g>
            </g>
            <g>
              <path class="cls-4" d="M246.5,474.2C163.4,428.5,3,469.6,3,469.6"/>
              <path class="cls-4" d="M246.9,474.4C162.5,428.1,3,478.9,3,478.9"/>
              <path class="cls-4" d="M247.4,474.6C161.7,427.7,3,488.3,3,488.3"/>
              <path class="cls-4" d="M247.8,474.8C161.1,427.3,3,497.6,3,497.6"/>
              <path class="cls-4" d="M248.3,475C160.3,426.9,3,507,3,507"/>
              <path class="cls-4" d="M248.6,475.2C159.5,426.6,3,516.5,3,516.5"/>
              <path class="cls-4" d="M249.2,475.4C158.7,426.2,3,525.8,3,525.8"/>
              <path class="cls-4" d="M249.5,475.7C158,425.8,3,535.2,3,535.2"/>
              <path class="cls-4" d="M250.1,475.8C157.2,425.4,3,544.5,3,544.5"/>
              <path class="cls-4" d="M250.4,476C156.6,425,3,553.8,3,553.8"/>
              <path class="cls-4" d="M251,476.2c-95.2-51.6-248,87-248,87"/>
              <path class="cls-4" d="M251.3,476.4C155,424.3,3,572.6,3,572.6"/>
              <path class="cls-4" d="M251.9,476.5C154.3,423.9,3,581.9,3,581.9"/>
              <path class="cls-4" d="M252.2,476.8C153.5,423.5,3,591.3,3,591.3"/>
              <path class="cls-4" d="M252.8,477C152.8,423.1,3,600.8,3,600.8"/>
              <path class="cls-4" d="M253.1,477.2C152.1,422.7,3,610.1,3,610.1"/>
              <path class="cls-4" d="M253.5,477.4C151.3,422.3,3,619.4,3,619.4"/>
              <path class="cls-4" d="M254,477.6C150.5,422.1,3,628.8,3,628.8"/>
              <path class="cls-4" d="M254.4,477.8C149.7,421.6,3,638.1,3,638.1"/>
              <path class="cls-4" d="M254.9,478C149.1,421.2,3,647.5,3,647.5"/>
              <path class="cls-4" d="M255.3,478.2C148.3,420.8,3,656.9,3,656.9"/>
              <path class="cls-4" d="M255.8,478.3C147.6,420.4,3,666.2,3,666.2"/>
            </g>
          </g>
        </g>
      </g>
    </g>
  </g>
</svg>
