<svg fill="#2FB196" xmlns="http://www.w3.org/2000/svg"  viewBox="0 0 50 50" width="50px" height="50px"><path d="M30.718 6.156c-.192 0-.387-.055-.559-.171-.458-.309-.578-.931-.27-1.389l2.805-4.156c.31-.458.93-.579 1.389-.27.458.309.578.931.27 1.389l-2.805 4.156C31.354 6.002 31.039 6.156 30.718 6.156zM19.282 6.156c-.321 0-.637-.154-.83-.441l-2.804-4.156c-.309-.458-.188-1.079.27-1.388.458-.31 1.08-.188 1.388.27l2.804 4.156c.309.458.188 1.079-.27 1.388C19.669 6.101 19.475 6.156 19.282 6.156z"/><path d="M25 3c-6.724 0-12.492 4.244-13.816 10h27.633C37.492 7.244 31.724 3 25 3zM19.503 11C18.67 11 18 10.33 18 9.498 18 8.67 18.67 8 19.503 8 20.33 8 21 8.67 21 9.498 21 10.33 20.33 11 19.503 11zM30.497 11C29.67 11 29 10.33 29 9.498 29 8.67 29.67 8 30.497 8 31.33 8 32 8.67 32 9.498 32 10.33 31.33 11 30.497 11zM11 15v22c0 1.654 1.346 3 3 3h22c1.654 0 3-1.346 3-3V15H11zM15 42v4c0 2.206 1.794 4 4 4s4-1.794 4-4v-4H15zM27 42v4c0 2.206 1.794 4 4 4s4-1.794 4-4v-4H27zM42 15c-.353 0-.686.072-1 .184v19.633C41.314 34.928 41.647 35 42 35c1.657 0 3-1.343 3-3 0-.432 0-13.569 0-14C45 16.343 43.657 15 42 15zM9 15.184C8.686 15.072 8.353 15 8 15c-1.657 0-3 1.343-3 3 0 .431 0 13.568 0 14 0 1.657 1.343 3 3 3 .353 0 .686-.072 1-.184V15.184z"/></svg>