<svg fill="#2FB196" xmlns="http://www.w3.org/2000/svg"  viewBox="0 0 50 50" width="50px" height="50px"><path d="M22.7,48h-8c-1,0-1.5-0.4-1.8-0.8c-0.4-0.5-0.5-1.2-0.4-1.7c0.1-0.3,3.6-16.8,4-18.6c0.3-1.3,1.4-2,3-2h7.2c7.3,0,11.8-3.3,13.2-9.8c0.2-1.2,0.4-2.1,0.3-3.1l-0.1-0.7l0,0c0.7,0,4,1.1,5.8,3.4c1.3,1.6,2.6,4.5,1.6,9.1C46.1,31.3,40.2,36,32.4,36h-5.1c-0.1,0-0.2,0-0.2,0c0,0-0.1,0.2-0.1,0.3c-0.1,0.3-1.3,6.1-2.2,9.9C24.6,47.3,23.7,48,22.7,48z"/><path d="M17.9,11.8c0.2-1,1.1-2.8,3.9-2.8v0l0,0h0H22H38c-1.4-4.6-5.9-7-10.1-7H11.4c-1,0-1.9,0.7-2.1,1.7c0,0-5.9,27-7,32.4c-0.2,1.1,0.1,1.7,0.4,2.1c0.4,0.5,1,0.8,1.8,0.8h7.5L17.9,11.8z"/><path d="M20.4,11.4c-0.3,0.2-0.5,0.6-0.6,0.9l-2.4,11.2c0.7-0.3,1.4-0.4,2.2-0.4h7.2c6.4,0,10-2.6,11.2-8.2c0.2-1,0.3-1.8,0.3-2.6l-0.1-1.1l0-0.1H22L20.4,11.4z"/></svg>